<svg
   version="1.1"
   viewBox="-5 -10 80.391 80.390761"
   id="pomodoro"
   width="80.392998"
   height="80.392761"
   xmlns="http://www.w3.org/2000/svg" >
  <path
     d="m 45.218426,-9.9952926 c -2.7383,0.17188 -7.9297,5.4414 -8.4609,8.0898 0,0 -3.2266,-8.0547 -6.0469,-6.7812 -1.5977,0.71875 1.1602,4.5352 0.14453,11.652 -6.8008,-4.875 -17.43,-3.08589993 -19.094,1.8438 3.8203,-1.375 8.3906,-1.4375 15.336,2.6562 -4.2539,2.293 -6.2812,6.9648006 -6.5625,9.5859006 0,0 11.582,-6.9414 15.039,-7.1523006 3.7969,-0.23438 10.605,5.1094006 14.969,5.8984006 -1.3359,-3.1367 -3.0508,-6.1602006 -6.3398,-8.7070006 8.7656,-5.1016 15.574,-2.0234 15.266,-3.5391 -0.57422,-2.78909993 -12.156,-4.7305 -18.285,-0.95703 0.78125,-9.1016 5.9062,-10.848 5.4531,-11.797 -0.28516,-0.60156 -0.78516,-0.8320294 -1.418,-0.79297 z m 7.1914,17.336 c -0.92578,0.19531 -1.9141,0.46484 -2.9414,0.80859 1.707,2.1055006 2.9258,4.3320006 3.8398,6.4648006 0.9375,2.1953 -0.94141,4.5547 -3.293,4.1289 -3.0781,-0.55859 -5.8633,-2.2383 -8.5352,-3.6211 -2.6758,-1.3789 -5.3203,-2.2617 -5.7109,-2.2344 0.03125,0 -1.3477,0.33594 -2.8008,0.96484 -1.4531,0.6289 -3.1758,1.4883 -4.7969,2.3477 -3.2422,1.7188 -6.0859,3.418 -6.0859,3.418 -2.125,1.2695 -4.7891,-0.43359 -4.5234,-2.8945 0.28125,-2.6094 1.5664,-5.8906 4.0781,-8.6523006 -0.26562,-0.10156 -0.51172,-0.19922 -0.75781,-0.28516 -10.254001,1.4648 -22.4060005,7.5078006 -22.9610005,27.7770006 -0.72266,26.273 26.2700005,34.969 37.6450005,34.828 11.992,-0.15234 37.641,-7.8242 37.434,-34.828 -0.14453,-18.547 -10.602,-25.8980006 -20.59,-28.2230006 z"
     id="path1" />
</svg>
